#!OML:ASF H:\LiuWeirdWalks\Patient Classification 1\Patient 1\Session 1\male.ASF
:FULLY-SPECIFIED
:DEGREES
712
root -0.108639 18.4195 -13.9936 4.68031 0.784104 7.42891
lowerback 11.4207 -0.273356 7.93955
upperback 0.82682 1.52973 14.1452
thorax -5.82139 0.774639 10.7627
lowerneck -23.2834 2.48368 12.6732
upperneck 25.4079 4.22361 -18.2134
head 13.1134 0.732407 -8.77353
rclavicle 1.59028e-015 7.95139e-014
rhumerus -16.7928 -14.2584 -48.1062
rradius 29.441
rwrist -10.949
rhand -17.9056 -4.33544
rfingers 7.12502
rthumb 8.36144 -34.1499
lclavicle 1.59028e-015 7.95139e-014
lhumerus -44.9873 -19.7751 106.173
lradius 46.1913
lwrist 0.774131
lhand 4.9933 -4.00706
lfingers 7.12502
lthumb 30.3636 23.5138
rfemur -16.017 -5.27223 9.92475
rtibia 24.5884
rfoot -12.4855 -8.98828
rtoes -7.28376
lfemur -15.3621 3.83528 -26.7919
ltibia 57.5915
lfoot 8.81719 9.94936
ltoes 21.6174
713
root -0.129055 18.4216 -13.8986 4.56891 0.881118 7.28302
lowerback 11.4877 -0.220791 8.02751
upperback 0.870515 1.61899 14.1825
thorax -5.82267 0.81737 10.7404
lowerneck -23.3139 2.39034 12.5618
upperneck 25.4669 4.08872 -18.0674
head 13.1074 0.677615 -8.71644
rclavicle 7.95139e-016 -1.17681e-013
rhumerus -15.9274 -13.8841 -48.3153
rradius 29.8655
rwrist -11.2887
rhand -18.1622 -4.31556
rfingers 7.12502
rthumb 8.11375 -34.1398
lclavicle 7.95139e-016 -1.17681e-013
lhumerus -44.8168 -19.3231 105.956
lradius 45.8184
lwrist 0.969598
lhand 3.8543 -4.20004
lfingers 7.12502
lthumb 29.2766 23.5158
rfemur -15.4921 -5.15682 10.1427
rtibia 24.5273
rfoot -12.525 -9.11705
rtoes -6.91007
lfemur -16.1638 3.72282 -26.5594
ltibia 58.0953
lfoot 7.67511 9.94151
ltoes 21.3025
714
root -0.148606 18.4226 -13.8041 4.46761 0.98085 7.1413
lowerback 11.5578 -0.169269 8.12135
upperback 0.902399 1.71005 14.2152
thorax -5.83833 0.860866 10.7096
lowerneck -23.3417 2.29001 12.4283
upperneck 25.5428 3.94956 -17.9052
head 13.1065 0.620907 -8.6504
rclavicle -2.54444e-014 -1.55847e-013
rhumerus -15.0863 -13.5246 -48.5022
rradius 30.2767
rwrist -11.6482
rhand -18.4155 -4.28727
rfingers 7.12502
rthumb 7.86928 -34.1208
lclavicle -2.54444e-014 -1.55847e-013
lhumerus -44.6458 -18.8992 105.741
lradius 45.4579
lwrist 1.18366
lhand 2.68738 -4.36685
lfingers 7.12502
lthumb 28.1618 23.538
rfemur -14.996 -5.00673 10.3557
rtibia 24.5008
rfoot -12.5729 -9.29186
rtoes -6.49208
lfemur -16.9427 3.58928 -26.3401
ltibia 58.4311
lfoot 6.46604 9.87716
ltoes 20.7122
715
root -0.167511 18.4225 -13.7107 4.3726 1.08402 6.98041
lowerback 11.6363 -0.120666 8.24329
upperback 0.925453 1.80415 14.2493
thorax -5.86793 0.905161 10.6639
lowerneck -23.3268 2.19798 12.3244
upperneck 25.5808 3.82015 -17.7725
head 13.0852 0.569417 -8.59632
rclavicle -8.74653e-015 -6.36111e-015
rhumerus -14.262 -13.1874 -48.6709
rradius 30.6692
rwrist -12.0084
rhand -18.6426 -4.23926
rfingers 7.12502
rthumb 7.65014 -34.0809
lclavicle -8.74653e-015 -6.36111e-015
lhumerus -44.479 -18.4826 105.514
lradius 45.1362
lwrist 1.3701
lhand 1.67644 -4.46979
lfingers 7.12502
lthumb 27.1951 23.5902
rfemur -14.5259 -4.81787 10.5907
rtibia 24.508
rfoot -12.6309 -9.51209
rtoes -6.0436
lfemur -17.7016 3.44673 -26.1065
ltibia 58.6094
lfoot 5.23507 9.7775
ltoes 19.9872
716
root -0.184883 18.4213 -13.617 4.27608 1.19209 6.83913
lowerback 11.714 -0.0812428 8.3564
upperback 0.936158 1.88665 14.2759
thorax -5.90886 0.943881 10.617
lowerneck -23.2816 2.11064 12.2291
upperneck 25.6409 3.70338 -17.6511
head 13.0701 0.52439 -8.54801
rclavicle -1.27222e-014 7.63333e-014
rhumerus -13.4602 -12.8601 -48.8241
rradius 31.0405
rwrist -12.3577
rhand -18.8375 -4.1752
rfingers 7.12502
rthumb 7.46201 -34.0236
lclavicle -1.27222e-014 7.63333e-014
lhumerus -44.3282 -18.0627 105.283
lradius 44.8484
lwrist 1.53121
lhand 0.81457 -4.5014
lfingers 7.12502
lthumb 26.3704 23.6849
rfemur -14.067 -4.66787 10.7997
rtibia 24.5467
rfoot -12.7061 -9.69858
rtoes -5.53555
lfemur -18.4144 3.28749 -25.9092
ltibia 58.6269
lfoot 4.04316 9.68889
ltoes 19.13
717
root -0.200885 18.4188 -13.5229 4.1772 1.30445 6.71071
lowerback 11.8062 -0.047847 8.46583
upperback 0.936246 1.96499 14.296
thorax -5.96874 0.980546 10.5661
lowerneck -23.2397 2.04703 12.2028
upperneck 25.7023 3.61358 -17.5931
head 13.0653 0.490751 -8.53654
rclavicle -1.03368e-014 1.94014e-013
rhumerus -12.6939 -12.5039 -48.9649
rradius 31.426
rwrist -12.77
rhand -19.0129 -4.12144
rfingers 7.12502
rthumb 7.29269 -33.9758
lclavicle -1.03368e-014 1.94014e-013
lhumerus -44.1979 -17.6476 105.048
lradius 44.6137
lwrist 1.70606
lhand 0.147802 -4.44354
lfingers 7.12502
lthumb 25.7319 23.8368
rfemur -13.6178 -4.55302 10.99
rtibia 24.6151
rfoot -12.7986 -9.85242
rtoes -4.97733
lfemur -19.0805 3.12394 -25.7404
ltibia 58.4867
lfoot 2.92015 9.63872
ltoes 18.2851
718
root -0.214818 18.4153 -13.4275 4.07645 1.4196 6.61214
lowerback 11.8718 -0.0185977 8.57077
upperback 0.943377 2.03021 14.3019
thorax -6.00325 1.01034 10.5017
lowerneck -23.197 1.97209 12.1611
upperneck 25.7566 3.50962 -17.5266
head 13.054 0.450145 -8.51989
rclavicle 1.43125e-014 -4.45278e-014
rhumerus -11.9345 -12.1833 -49.0992
rradius 31.8038
rwrist -13.1949
rhand -19.1712 -4.0871
rfingers 7.12502
rthumb 7.13988 -33.9467
lclavicle 1.43125e-014 -4.45278e-014
lhumerus -44.0652 -17.2499 104.8
lradius 44.4379
lwrist 1.85277
lhand -0.417942 -4.35208
lfingers 7.12502
lthumb 25.19 24.0056
rfemur -13.1749 -4.51698 11.1381
rtibia 24.7129
rfoot -12.8976 -9.92871
rtoes -4.39045
lfemur -19.6903 2.9516 -25.623
ltibia 58.1872
lfoot 1.90633 9.66602
ltoes 17.6542
719
root -0.226986 18.4108 -13.3313 3.97882 1.53073 6.54108
lowerback 11.9231 0.00664116 8.66483
upperback 0.947781 2.08586 14.2979
thorax -6.03114 1.03543 10.433
lowerneck -23.1855 1.89624 12.0924
upperneck 25.8501 3.41086 -17.4433
head 13.0657 0.41037 -8.49482
rclavicle 3.97569e-014 4.45278e-014
rhumerus -11.2035 -11.8556 -49.22
rradius 32.1924
rwrist -13.643
rhand -19.3069 -4.05389
rfingers 7.12502
rthumb 7.00888 -33.9179
lclavicle 3.97569e-014 4.45278e-014
lhumerus -43.9548 -16.8468 104.545
lradius 44.3302
lwrist 1.9546
lhand -0.922843 -4.26406
lfingers 7.12502
lthumb 24.7062 24.1607
rfemur -12.7447 -4.54017 11.2464
rtibia 24.8359
rfoot -12.9994 -9.94124
rtoes -3.78635
lfemur -20.2522 2.78245 -25.5538
ltibia 57.739
lfoot 1.01029 9.79081
ltoes 17.276
720
root -0.237545 18.4052 -13.2343 3.88898 1.64377 6.48845
lowerback 11.9607 0.029514 8.75092
upperback 0.952484 2.13442 14.2891
thorax -6.04984 1.0571 10.3641
lowerneck -23.1971 1.82684 12.0243
upperneck 25.9342 3.31996 -17.3664
head 13.0806 0.372522 -8.47133
rclavicle -1.98785e-014 1.33583e-013
rhumerus -10.495 -11.5243 -49.3233
rradius 32.5947
rwrist -14.1056
rhand -19.4352 -4.04558
rfingers 7.12502
rthumb 6.88507 -33.9136
lclavicle -1.98785e-014 1.33583e-013
lhumerus -43.8499 -16.4648 104.294
lradius 44.2794
lwrist 2.03119
lhand -1.41891 -4.20753
lfingers 7.12502
lthumb 24.2306 24.2815
rfemur -12.3469 -4.61508 11.3261
rtibia 25.017
rfoot -13.1272 -9.90556
rtoes -3.20056
lfemur -20.7824 2.61637 -25.5215
ltibia 57.1706
lfoot 0.194596 10.0243
ltoes 17.4518
721
root -0.246913 18.3988 -13.1374 3.8102 1.75648 6.42827
lowerback 11.9908 0.0516005 8.85267
upperback 0.950031 2.18417 14.2833
thorax -6.07177 1.07894 10.2896
lowerneck -23.2055 1.75916 11.956
upperneck 26.0281 3.23578 -17.2987
head 13.1005 0.336786 -8.45158
rclavicle 4.77083e-015 -5.725e-014
rhumerus -9.81343 -11.2099 -49.4044
rradius 32.9964
rwrist -14.5197
rhand -19.5098 -4.01118
rfingers 7.12502
rthumb 6.81309 -33.8816
lclavicle 4.77083e-015 -5.725e-014
lhumerus -43.768 -16.1157 104.057
lradius 44.2856
lwrist 2.0779
lhand -1.88905 -4.1733
lfingers 7.12502
lthumb 23.7798 24.3752
rfemur -11.9619 -4.71223 11.4081
rtibia 25.1979
rfoot -13.2536 -9.84836
rtoes -2.69633
lfemur -21.2902 2.46271 -25.493
ltibia 56.4825
lfoot -0.550229 10.3572
ltoes 18.2145
722
root -0.25591 18.3857 -13.0417 3.74187 1.86049 6.32799
lowerback 12.0241 0.0728379 8.99195
upperback 0.946533 2.23936 14.289
thorax -6.0964 1.10249 10.2064
lowerneck -23.2139 1.69755 11.8944
upperneck 26.0993 3.15953 -17.2443
head 13.1136 0.303448 -8.43553
rclavicle 1.11319e-014 1.43125e-013
rhumerus -9.15039 -10.9293 -49.4688
rradius 33.3872
rwrist -14.7908
rhand -19.4587 -3.90479
rfingers 7.12502
rthumb 6.86241 -33.7736
lclavicle 1.11319e-014 1.43125e-013
lhumerus -43.692 -15.8057 103.832
lradius 44.3321
lwrist 2.1096
lhand -2.37442 -4.19806
lfingers 7.12502
lthumb 23.3142 24.4102
rfemur -11.6016 -4.78123 11.5334
rtibia 25.3784
rfoot -13.3877 -9.8066
rtoes -2.30356
lfemur -21.8097 2.34162 -25.427
ltibia 55.7082
lfoot -1.23581 10.7598
ltoes 19.2447
723
root -0.264395 18.3793 -12.9459 3.67924 1.95255 6.17358
lowerback 12.0799 0.0917827 9.17387
upperback 0.932336 2.30473 14.3121
thorax -6.14603 1.13006 10.1188
lowerneck -23.1605 1.66195 11.9125
upperneck 26.1052 3.1137 -17.2688
head 13.0961 0.283821 -8.45555
rclavicle 2.22639e-014 9.22361e-014
rhumerus -8.52574 -10.6153 -49.5135
rradius 33.7942
rwrist -15.0298
rhand -19.3562 -3.79879
rfingers 7.12502
rthumb 6.96128 -33.6643
lclavicle 2.22639e-014 9.22361e-014
lhumerus -43.6433 -15.5183 103.62
lradius 44.423
lwrist 2.12982
lhand -2.84027 -4.28178
lfingers 7.12502
lthumb 22.8673 24.3824
rfemur -11.2328 -4.80232 11.7201
rtibia 25.5252
rfoot -13.5423 -9.79257
rtoes -2.05583
lfemur -22.2914 2.26251 -25.3083
ltibia 54.8042
lfoot -1.88073 11.2105
ltoes 20.422
724
root -0.271846 18.3732 -12.8494 3.62134 2.03468 6.01715
lowerback 12.1344 0.110393 9.35595
upperback 0.911254 2.37112 14.3382
thorax -6.20247 1.15804 10.0351
lowerneck -23.0641 1.62739 11.9433
upperneck 26.1064 3.07331 -17.31
head 13.0694 0.267308 -8.48242
rclavicle 1.59028e-014 6.04305e-014
rhumerus -7.92431 -10.3023 -49.5415
rradius 34.1943
rwrist -15.2089
rhand -19.231 -3.69639
rfingers 7.12502
rthumb 7.08213 -33.5579
lclavicle 1.59028e-014 6.04305e-014
lhumerus -43.6062 -15.257 103.426
lradius 44.5402
lwrist 2.15719
lhand -3.21378 -4.36506
lfingers 7.12502
lthumb 22.5088 24.343
rfemur -10.8563 -4.82207 11.9039
rtibia 25.6402
rfoot -13.7148 -9.76703
rtoes -1.97771
lfemur -22.7389 2.2202 -25.1981
ltibia 53.7903
lfoot -2.43813 11.7005
ltoes 21.466
725
root -0.27837 18.3675 -12.7523 3.56893 2.11819 5.86193
lowerback 12.1899 0.126755 9.53953
upperback 0.884341 2.43637 14.3649
thorax -6.26552 1.18526 9.95193
lowerneck -22.9912 1.5935 11.9663
upperneck 26.1357 3.03452 -17.3409
head 13.059 0.251422 -8.50661
rclavicle -1.35174e-014 -1.30403e-013
rhumerus -7.36279 -9.93108 -49.5453
rradius 34.6214
rwrist -15.438
rhand -19.1375 -3.61433
rfingers 7.12502
rthumb 7.17245 -33.4728
lclavicle -1.35174e-014 -1.30403e-013
lhumerus -43.5712 -15.018 103.244
lradius 44.6808
lwrist 2.21847
lhand -3.47777 -4.47179
lfingers 7.12502
lthumb 22.2554 24.2668
rfemur -10.448 -4.84376 12.0828
rtibia 25.6783
rfoot -13.8806 -9.73963
rtoes -2.03429
lfemur -23.142 2.21002 -25.0994
ltibia 52.6466
lfoot -2.90505 12.2057
ltoes 22.3435
726
root -0.283852 18.3627 -12.6546 3.52562 2.20483 5.71438
lowerback 12.2231 0.143487 9.72408
upperback 0.860054 2.49754 14.39
thorax -6.31213 1.21033 9.86645
lowerneck -22.9183 1.56212 11.9907
upperneck 26.1529 2.99818 -17.3735
head 13.0442 0.236489 -8.53016
rclavicle 2.14687e-014 -3.18055e-014
rhumerus -6.81934 -9.53864 -49.5273
rradius 35.0578
rwrist -15.7067
rhand -19.0882 -3.55808
rfingers 7.12502
rthumb 7.22001 -33.4149
lclavicle 2.14687e-014 -3.18055e-014
lhumerus -43.5252 -14.8067 103.069
lradius 44.8427
lwrist 2.29429
lhand -3.56788 -4.54
lfingers 7.12502
lthumb 22.1689 24.2089
rfemur -10.031 -4.87364 12.2498
rtibia 25.6835
rfoot -14.0505 -9.71091
rtoes -2.2148
lfemur -23.5072 2.22744 -25.0195
ltibia 51.3867
lfoot -3.28056 12.7194
ltoes 23.1213
